#!OML:ASF X:\für Bonn\!DataBase\2005_08_10_Bjorn_Final\c3d\bjorn.ASF
:FULLY-SPECIFIED
:DEGREES
94
root 0.205012 19.216 4.60028 -202.185 -37.3305 199.497
lowerback 34.3462 1.65192 -4.37232
upperback 21.7691 -5.28588 0.515467
thorax 6.91312 -5.69335 3.812
lowerneck -6.26766 -8.5007 -2.66579
upperneck -4.92365 -12.5503 24.372
head 1.48546 -6.89438 7.29099
rclavicle 3.81667e-014 1.24042e-013
rhumerus -36.1073 -13.5688 -79.2936
rradius 19.6274
rwrist 27.5946
rhand -2.71338 14.6754
rfingers 7.12502
rthumb 22.989 -13.9737
lclavicle 3.81667e-014 1.24042e-013
lhumerus 58.1154 -16.5008 82.0768
lradius 73.2881
lwrist -6.50327
lhand -40.1092 -17.3959
lfingers 7.12502
lthumb -13.0731 12.1744
rfemur -85.6479 -8.67334 24.8929
rtibia 125.889
rfoot 0.799879 19.066
rtoes -25.0848
lfemur -5.65559 -13.3309 -5.29531
ltibia 31.5553
lfoot -4.33916 -20.26
ltoes 14.1834
95
root 0.175351 19.245 4.59319 -201.823 -37.123 199.012
lowerback 33.4223 1.4844 -4.4926
upperback 21.7245 -5.37949 0.389959
thorax 7.1967 -5.70826 3.71798
lowerneck -6.69054 -8.39406 -2.37588
upperneck -4.03457 -12.5337 23.7428
head 1.74137 -6.75871 7.00584
rclavicle 3.49861e-014 -6.36111e-014
rhumerus -35.8929 -14.0068 -79.2024
rradius 19.5677
rwrist 27.8926
rhand -2.63826 14.7367
rfingers 7.12502
rthumb 23.0611 -13.9034
lclavicle 3.49861e-014 -6.36111e-014
lhumerus 56.8758 -15.7505 81.774
lradius 72.998
lwrist -7.08341
lhand -39.7725 -17.2855
lfingers 7.12502
lthumb -12.7484 12.3053
rfemur -84.1909 -8.91238 24.615
rtibia 125.062
rfoot 1.22686 18.7066
rtoes -24.7263
lfemur -5.10704 -12.8853 -5.6499
ltibia 30.7187
lfoot -4.00732 -20.2404
ltoes 14.1731
96
root 0.145491 19.2779 4.58581 -201.471 -36.9228 198.556
lowerback 32.4579 1.3003 -4.53897
upperback 21.6848 -5.46881 0.253203
thorax 7.50391 -5.71109 3.5675
lowerneck -7.04299 -8.26712 -2.02862
upperneck -3.2728 -12.4745 23.138
head 1.9426 -6.62546 6.73286
rclavicle 5.08889e-014 9.54166e-015
rhumerus -35.6804 -14.3757 -79.2229
rradius 19.5838
rwrist 27.9625
rhand -2.55145 14.7181
rfingers 7.12502
rthumb 23.1444 -13.9116
lclavicle 5.08889e-014 9.54166e-015
lhumerus 55.5965 -15.0498 81.3833
lradius 72.6622
lwrist -7.61923
lhand -39.4376 -17.0877
lfingers 7.12502
lthumb -12.4255 12.523
rfemur -82.6043 -9.07408 24.3318
rtibia 124.112
rfoot 1.46473 18.2793
rtoes -24.6701
lfemur -4.53628 -12.4424 -5.98214
ltibia 29.807
lfoot -3.68388 -20.2229
ltoes 13.9236
97
root 0.114145 19.3138 4.57792 -201.072 -36.6834 198.095
lowerback 31.4206 1.11845 -4.55571
upperback 21.6358 -5.5353 0.1025
thorax 7.83276 -5.6941 3.37615
lowerneck -7.23697 -8.12707 -1.75047
upperneck -2.68356 -12.3709 22.6778
head 2.07897 -6.50094 6.53303
rclavicle 3.18055e-015 -9.22361e-014
rhumerus -35.4837 -14.7787 -79.2826
rradius 19.6374
rwrist 28.0158
rhand -2.49221 14.7363
rfingers 7.12502
rthumb 23.2012 -13.8863
lclavicle 3.18055e-015 -9.22361e-014
lhumerus 54.2522 -14.4064 80.9966
lradius 72.2504
lwrist -8.30887
lhand -39.0091 -17.0844
lfingers 7.12502
lthumb -12.0124 12.5509
rfemur -80.9138 -9.114 24.0269
rtibia 123.026
rfoot 1.6385 17.7169
rtoes -24.2803
lfemur -3.95722 -11.9818 -6.30362
ltibia 28.8183
lfoot -3.34805 -20.151
ltoes 13.6184
98
root 0.0828412 19.3503 4.56948 -200.605 -36.4602 197.63
lowerback 30.3712 0.89194 -4.61335
upperback 21.4799 -5.62556 -0.0405359
thorax 8.06098 -5.67329 3.22769
lowerneck -7.23275 -7.96326 -1.55156
upperneck -2.06064 -12.2059 22.1569
head 2.18552 -6.34939 6.34207
rclavicle -1.09729e-013 -4.29375e-014
rhumerus -35.4343 -14.9886 -79.3176
rradius 19.7405
rwrist 27.9209
rhand -2.47458 14.8065
rfingers 7.12502
rthumb 23.2181 -13.8139
lclavicle -1.09729e-013 -4.29375e-014
lhumerus 52.7047 -13.746 80.6294
lradius 71.7517
lwrist -8.94769
lhand -38.6216 -17.3316
lfingers 7.12502
lthumb -11.6387 12.3252
rfemur -79.1908 -9.14959 23.7285
rtibia 121.814
rfoot 1.75063 17.0231
rtoes -23.9669
lfemur -3.42373 -11.5182 -6.61841
ltibia 27.756
lfoot -2.97256 -20.0798
ltoes 13.2825
99
root 0.0501362 19.3866 4.55939 -200.101 -36.219 197.144
lowerback 29.3256 0.648434 -4.74111
upperback 21.2348 -5.72466 -0.155632
thorax 8.20598 -5.65266 3.15419
lowerneck -6.95251 -7.79327 -1.54439
upperneck -1.46798 -11.984 21.6566
head 2.24453 -6.18284 6.20638
rclavicle 2.06736e-014 -3.65764e-014
rhumerus -35.489 -15.085 -79.2559
rradius 19.8487
rwrist 27.8552
rhand -2.45454 14.8646
rfingers 7.12502
rthumb 23.2374 -13.7534
lclavicle 2.06736e-014 -3.65764e-014
lhumerus 50.9062 -13.0575 80.2832
lradius 71.2011
lwrist -9.50416
lhand -38.2772 -17.7692
lfingers 7.12502
lthumb -11.3067 11.906
rfemur -77.4046 -9.18055 23.41
rtibia 120.506
rfoot 1.83182 16.242
rtoes -23.4421
lfemur -2.88186 -11.0449 -6.9452
ltibia 26.6508
lfoot -2.64104 -19.991
ltoes 12.6999
